<mxfile host="65bd71144e">
    <diagram id="GAO3dsLI-yRbzW_njiIf" name="Page-1">
        <mxGraphModel dx="1193" dy="705" grid="1" gridSize="10" guides="1" tooltips="1" connect="1" arrows="1" fold="1" page="1" pageScale="1" pageWidth="850" pageHeight="1100" math="0" shadow="0">
            <root>
                <mxCell id="0"/>
                <mxCell id="1" parent="0"/>
                <mxCell id="20" value="Scooter" style="swimlane;whiteSpace=wrap;html=1;" parent="1" vertex="1">
                    <mxGeometry x="40" y="360" width="200" height="210" as="geometry"/>
                </mxCell>
                <mxCell id="22" value="user" style="text;html=1;align=center;verticalAlign=middle;resizable=0;points=[];autosize=1;strokeColor=none;fillColor=none;" parent="20" vertex="1">
                    <mxGeometry x="75" y="60" width="50" height="30" as="geometry"/>
                </mxCell>
                <mxCell id="23" value="serial" style="text;html=1;align=center;verticalAlign=middle;resizable=0;points=[];autosize=1;strokeColor=none;fillColor=none;" parent="20" vertex="1">
                    <mxGeometry x="75" y="90" width="50" height="30" as="geometry"/>
                </mxCell>
                <mxCell id="24" value="nextserial" style="text;html=1;align=center;verticalAlign=middle;resizable=0;points=[];autosize=1;strokeColor=none;fillColor=none;" parent="20" vertex="1">
                    <mxGeometry x="65" y="120" width="70" height="30" as="geometry"/>
                </mxCell>
                <mxCell id="21" value="station" style="text;html=1;align=center;verticalAlign=middle;resizable=0;points=[];autosize=1;strokeColor=none;fillColor=none;" parent="20" vertex="1">
                    <mxGeometry x="70" y="30" width="60" height="30" as="geometry"/>
                </mxCell>
                <mxCell id="25" value="charge" style="text;html=1;align=center;verticalAlign=middle;resizable=0;points=[];autosize=1;strokeColor=none;fillColor=none;" parent="20" vertex="1">
                    <mxGeometry x="70" y="150" width="60" height="30" as="geometry"/>
                </mxCell>
                <mxCell id="26" value="isBroken" style="text;html=1;align=center;verticalAlign=middle;resizable=0;points=[];autosize=1;strokeColor=none;fillColor=none;" parent="20" vertex="1">
                    <mxGeometry x="65" y="180" width="70" height="30" as="geometry"/>
                </mxCell>
                <mxCell id="27" value="User" style="swimlane;whiteSpace=wrap;html=1;" parent="1" vertex="1">
                    <mxGeometry x="290" y="30" width="200" height="160" as="geometry"/>
                </mxCell>
                <mxCell id="28" value="password" style="text;html=1;align=center;verticalAlign=middle;resizable=0;points=[];autosize=1;strokeColor=none;fillColor=none;" parent="27" vertex="1">
                    <mxGeometry x="65" y="60" width="70" height="30" as="geometry"/>
                </mxCell>
                <mxCell id="29" value="age" style="text;html=1;align=center;verticalAlign=middle;resizable=0;points=[];autosize=1;strokeColor=none;fillColor=none;" parent="27" vertex="1">
                    <mxGeometry x="80" y="90" width="40" height="30" as="geometry"/>
                </mxCell>
                <mxCell id="30" value="loggedin" style="text;html=1;align=center;verticalAlign=middle;resizable=0;points=[];autosize=1;strokeColor=none;fillColor=none;" parent="27" vertex="1">
                    <mxGeometry x="65" y="120" width="70" height="30" as="geometry"/>
                </mxCell>
                <mxCell id="31" value="username" style="text;html=1;align=center;verticalAlign=middle;resizable=0;points=[];autosize=1;strokeColor=none;fillColor=none;" parent="27" vertex="1">
                    <mxGeometry x="60" y="30" width="80" height="30" as="geometry"/>
                </mxCell>
                <mxCell id="34" value="ScooterApp" style="swimlane;whiteSpace=wrap;html=1;" parent="1" vertex="1">
                    <mxGeometry x="545" y="360" width="220" height="110" as="geometry"/>
                </mxCell>
                <mxCell id="35" value="registeredUsers" style="text;html=1;align=center;verticalAlign=middle;resizable=0;points=[];autosize=1;strokeColor=none;fillColor=none;" parent="34" vertex="1">
                    <mxGeometry x="45" y="60" width="110" height="30" as="geometry"/>
                </mxCell>
                <mxCell id="38" value="Stations" style="text;html=1;align=center;verticalAlign=middle;resizable=0;points=[];autosize=1;strokeColor=none;fillColor=none;" parent="34" vertex="1">
                    <mxGeometry x="65" y="30" width="70" height="30" as="geometry"/>
                </mxCell>
                <mxCell id="39" value="username" style="text;html=1;align=center;verticalAlign=middle;resizable=0;points=[];autosize=1;strokeColor=none;fillColor=none;" parent="1" vertex="1">
                    <mxGeometry x="350" width="80" height="30" as="geometry"/>
                </mxCell>
                <mxCell id="41" value="Methods" style="swimlane;whiteSpace=wrap;html=1;" parent="1" vertex="1">
                    <mxGeometry x="40" y="570" width="200" height="150" as="geometry"/>
                </mxCell>
                <mxCell id="42" value="dock(station)" style="text;html=1;align=center;verticalAlign=middle;resizable=0;points=[];autosize=1;strokeColor=none;fillColor=none;" parent="41" vertex="1">
                    <mxGeometry x="55" y="60" width="90" height="30" as="geometry"/>
                </mxCell>
                <mxCell id="43" value="recharge()" style="text;html=1;align=center;verticalAlign=middle;resizable=0;points=[];autosize=1;strokeColor=none;fillColor=none;" parent="41" vertex="1">
                    <mxGeometry x="60" y="90" width="80" height="30" as="geometry"/>
                </mxCell>
                <mxCell id="44" value="requestRepair()" style="text;html=1;align=center;verticalAlign=middle;resizable=0;points=[];autosize=1;strokeColor=none;fillColor=none;" parent="41" vertex="1">
                    <mxGeometry x="45" y="120" width="110" height="30" as="geometry"/>
                </mxCell>
                <mxCell id="45" value="rent()" style="text;html=1;align=center;verticalAlign=middle;resizable=0;points=[];autosize=1;strokeColor=none;fillColor=none;" parent="41" vertex="1">
                    <mxGeometry x="75" y="30" width="50" height="30" as="geometry"/>
                </mxCell>
                <mxCell id="48" value="Methods" style="swimlane;whiteSpace=wrap;html=1;" parent="1" vertex="1">
                    <mxGeometry x="290" y="190" width="200" height="110" as="geometry"/>
                </mxCell>
                <mxCell id="49" value="logout()" style="text;html=1;align=center;verticalAlign=middle;resizable=0;points=[];autosize=1;strokeColor=none;fillColor=none;" parent="48" vertex="1">
                    <mxGeometry x="70" y="60" width="60" height="30" as="geometry"/>
                </mxCell>
                <mxCell id="52" value="login(password)" style="text;html=1;align=center;verticalAlign=middle;resizable=0;points=[];autosize=1;strokeColor=none;fillColor=none;" parent="48" vertex="1">
                    <mxGeometry x="45" y="30" width="110" height="30" as="geometry"/>
                </mxCell>
                <mxCell id="55" value="Methods" style="swimlane;whiteSpace=wrap;html=1;" parent="1" vertex="1">
                    <mxGeometry x="545" y="470" width="220" height="290" as="geometry"/>
                </mxCell>
                <mxCell id="56" value="loginUser(username, password)" style="text;html=1;align=center;verticalAlign=middle;resizable=0;points=[];autosize=1;strokeColor=none;fillColor=none;" parent="55" vertex="1">
                    <mxGeometry x="5" y="60" width="190" height="30" as="geometry"/>
                </mxCell>
                <mxCell id="57" value="logoutUser(username)" style="text;html=1;align=center;verticalAlign=middle;resizable=0;points=[];autosize=1;strokeColor=none;fillColor=none;" parent="55" vertex="1">
                    <mxGeometry x="30" y="90" width="140" height="30" as="geometry"/>
                </mxCell>
                <mxCell id="58" value="createScooter(station)" style="text;html=1;align=center;verticalAlign=middle;resizable=0;points=[];autosize=1;strokeColor=none;fillColor=none;" parent="55" vertex="1">
                    <mxGeometry x="30" y="120" width="140" height="30" as="geometry"/>
                </mxCell>
                <mxCell id="59" value="registerUser(username, password, age)" style="text;html=1;align=center;verticalAlign=middle;resizable=0;points=[];autosize=1;strokeColor=none;fillColor=none;" parent="55" vertex="1">
                    <mxGeometry x="-5" y="30" width="230" height="30" as="geometry"/>
                </mxCell>
                <mxCell id="60" value="dockScooter(scooter, station)" style="text;html=1;align=center;verticalAlign=middle;resizable=0;points=[];autosize=1;strokeColor=none;fillColor=none;" parent="55" vertex="1">
                    <mxGeometry x="10" y="150" width="180" height="30" as="geometry"/>
                </mxCell>
                <mxCell id="61" value="rentScooter(scooter, user)" style="text;html=1;align=center;verticalAlign=middle;resizable=0;points=[];autosize=1;strokeColor=none;fillColor=none;" parent="55" vertex="1">
                    <mxGeometry x="20" y="180" width="160" height="30" as="geometry"/>
                </mxCell>
                <mxCell id="65" value="print()" style="text;html=1;align=center;verticalAlign=middle;resizable=0;points=[];autosize=1;strokeColor=none;fillColor=none;" parent="55" vertex="1">
                    <mxGeometry x="75" y="210" width="50" height="30" as="geometry"/>
                </mxCell>
                <mxCell id="71" value="" style="endArrow=classic;startArrow=classic;html=1;entryX=0;entryY=0.667;entryDx=0;entryDy=0;entryPerimeter=0;" parent="1" edge="1">
                    <mxGeometry width="50" height="50" relative="1" as="geometry">
                        <mxPoint x="243" y="520" as="sourcePoint"/>
                        <mxPoint x="542" y="520.01" as="targetPoint"/>
                    </mxGeometry>
                </mxCell>
                <mxCell id="72" value="" style="endArrow=classic;startArrow=classic;html=1;entryX=0;entryY=0.5;entryDx=0;entryDy=0;" parent="1" target="48" edge="1">
                    <mxGeometry width="50" height="50" relative="1" as="geometry">
                        <mxPoint x="160" y="360" as="sourcePoint"/>
                        <mxPoint x="210" y="310" as="targetPoint"/>
                    </mxGeometry>
                </mxCell>
                <mxCell id="73" value="" style="endArrow=classic;startArrow=classic;html=1;entryX=0.423;entryY=-0.018;entryDx=0;entryDy=0;entryPerimeter=0;" parent="1" edge="1">
                    <mxGeometry width="50" height="50" relative="1" as="geometry">
                        <mxPoint x="490" y="242" as="sourcePoint"/>
                        <mxPoint x="638.06" y="360.02" as="targetPoint"/>
                    </mxGeometry>
                </mxCell>
                <mxCell id="74" value="User can rent and dock scooters" style="text;html=1;align=center;verticalAlign=middle;resizable=0;points=[];autosize=1;strokeColor=none;fillColor=none;" parent="1" vertex="1">
                    <mxGeometry x="40" y="240" width="200" height="30" as="geometry"/>
                </mxCell>
                <mxCell id="75" value="App creates scooter and marks scooters&lt;br&gt;&amp;nbsp;as rented or docked" style="text;html=1;align=center;verticalAlign=middle;resizable=0;points=[];autosize=1;strokeColor=none;fillColor=none;" parent="1" vertex="1">
                    <mxGeometry x="270" y="440" width="240" height="40" as="geometry"/>
                </mxCell>
                <mxCell id="76" value="User registers, logs in/out &lt;br&gt;and rents scooter from app" style="text;html=1;align=center;verticalAlign=middle;resizable=0;points=[];autosize=1;strokeColor=none;fillColor=none;" parent="1" vertex="1">
                    <mxGeometry x="570" y="230" width="170" height="40" as="geometry"/>
                </mxCell>
            </root>
        </mxGraphModel>
    </diagram>
</mxfile>